<?xml version="1.0" encoding="UTF-8"?>
<svg id="Layer_1" data-name="Layer 1" xmlns="http://www.w3.org/2000/svg" xmlns:xlink="http://www.w3.org/1999/xlink" viewBox="0 0 141.73 141.73">
  <defs>
    <style>
      .cls-1 {
        fill: none;
      }

      .cls-2 {
        fill: #010101;
      }

      .cls-3 {
        fill: url(#linear-gradient-3);
      }

      .cls-4 {
        fill: url(#linear-gradient-2);
      }

      .cls-5 {
        fill: #231f20;
      }

      .cls-6 {
        fill: url(#linear-gradient);
      }

      .cls-7 {
        fill: #f05141;
      }

      .cls-8 {
        fill: #f1f2f2;
      }

      .cls-9 {
        clip-path: url(#clippath-1);
      }

      .cls-10 {
        clip-path: url(#clippath-3);
      }

      .cls-11 {
        clip-path: url(#clippath-4);
      }

      .cls-12 {
        clip-path: url(#clippath-2);
      }

      .cls-13 {
        font-family: SFPro-ExpandedHeavy, 'SF Pro';
        font-size: 12.66px;
        font-variation-settings: 'wdth' 132, 'opsz' 28, 'wght' 870;
        font-weight: 800;
      }

      .cls-13, .cls-14, .cls-15 {
        fill: #fff;
      }

      .cls-16 {
        fill: #fcba29;
      }

      .cls-15 {
        font-family: SFPro-ExpandedRegular, 'SF Pro';
        font-size: 7.09px;
        font-variation-settings: 'wdth' 132, 'opsz' 28, 'wght' 410;
      }

      .cls-17 {
        fill: #ed2024;
      }

      .cls-18 {
        fill: #3eb769;
      }

      .cls-19 {
        fill: #33b061;
      }

      .cls-20 {
        fill: #e6e7e8;
      }

      .cls-21 {
        clip-path: url(#clippath);
      }

      .cls-22 {
        fill: #4e7dbf;
      }
    </style>
    <clipPath id="clippath">
      <rect class="cls-1" x="48.18" y="92.35" width="45.37" height="32.08"/>
    </clipPath>
    <clipPath id="clippath-1">
      <rect class="cls-1" x="48.18" y="92.35" width="45.37" height="32.08"/>
    </clipPath>
    <clipPath id="clippath-2">
      <path class="cls-1" d="M23.61,21.09c-.1.42.17.85.59.95.42.1.85-.17.94-.59.1-.43-.17-.85-.59-.95-.06-.01-.12-.02-.18-.02-.36,0-.68.25-.77.61"/>
    </clipPath>
    <linearGradient id="linear-gradient" x1="166.95" y1="208.63" x2="167.67" y2="208.63" gradientTransform="translate(4042.53 -4995.88) rotate(-180) scale(24.05 -24.05)" gradientUnits="userSpaceOnUse">
      <stop offset="0" stop-color="#fdce3d"/>
      <stop offset=".49" stop-color="#ee2f6b"/>
      <stop offset=".97" stop-color="#9d499b"/>
      <stop offset="1" stop-color="#9d499b"/>
    </linearGradient>
    <clipPath id="clippath-3">
      <path class="cls-1" d="M19.7,26.01c-1.14-.26-1.86-1.4-1.6-2.54.26-1.14,1.4-1.86,2.54-1.6,1.14.26,1.86,1.4,1.6,2.54-.22.98-1.1,1.65-2.07,1.65-.16,0-.31-.02-.47-.05M16.94,23.2c-.41,1.78.71,3.56,2.49,3.97,1.78.41,3.56-.71,3.97-2.49.41-1.78-.71-3.56-2.49-3.97-.25-.06-.5-.08-.74-.08-1.51,0-2.88,1.04-3.23,2.58"/>
    </clipPath>
    <linearGradient id="linear-gradient-2" x1="166.95" y1="208.64" x2="167.67" y2="208.64" gradientTransform="translate(4043.37 -4993.27) rotate(-180) scale(24.05 -24.05)" xlink:href="#linear-gradient"/>
    <clipPath id="clippath-4">
      <path class="cls-1" d="M21.52,29.85l-5.24-1.2c-1.49-.34-2.43-1.83-2.09-3.33l1.2-5.24c.34-1.49,1.83-2.43,3.33-2.09l5.24,1.2c1.49.34,2.43,1.83,2.09,3.33l-1.2,5.24c-.29,1.28-1.44,2.16-2.71,2.16-.2,0-.41-.02-.62-.07M14.16,19.81l-1.2,5.24c-.5,2.17.87,4.35,3.04,4.84l5.24,1.2c2.17.5,4.35-.87,4.84-3.04l1.2-5.24c.5-2.17-.87-4.35-3.04-4.84l-5.24-1.2c-.3-.07-.6-.1-.9-.1-1.84,0-3.51,1.27-3.94,3.14"/>
    </clipPath>
    <linearGradient id="linear-gradient-3" x1="166.95" y1="208.64" x2="167.67" y2="208.64" gradientTransform="translate(4043.37 -4993.29) rotate(-180) scale(24.05 -24.05)" xlink:href="#linear-gradient"/>
  </defs>
  <rect class="cls-14" width="141.73" height="141.73"/>
  <path class="cls-17" d="M0,82.35c6.47,5.52,32.57,26.46,71.77,26.14,38.07-.31,63.33-20.48,69.96-26.14v67.89H0v-67.89Z"/>
  <path class="cls-5" d="M0,82.35c17.68,13.56,39.14,22.35,61.38,24.2,28.59,2.61,57.69-6.71,80.35-24.2-4.69,4.42-9.92,8.27-15.37,11.72C86.92,118.94,34.15,114.07,0,82.35H0Z"/>
  <g class="cls-21">
    <g class="cls-9">
      <path d="M86.69,109.8c.08-.03.17-.06.25-.09.02.02.04.05.07.07.16.15.38.23.6.23.02,0,.05,0,.07,0l1.8-.15c.45-.04.8-.41.81-.86l.09-4.9c0-.25-.1-.49-.28-.66-.16-.15-.38-.24-.61-.24-.02,0-.05,0-.07,0l-1.89.15c-.1,0-.19.03-.27.07-.1-.05-.21-.1-.32-.15-.41-.18-.88-.27-1.4-.27s-.98.08-1.42.23c-.46.16-.86.4-1.2.71-.09.08-.17.17-.25.26-.03-.05-.07-.09-.1-.14-.27-.34-.6-.61-.99-.82-.41-.22-.86-.33-1.35-.33-.3,0-.57.04-.82.12-.14-.08-.29-.12-.45-.12-.03,0-.05,0-.08,0l-1.76.15c-.26.02-.49.16-.64.36-.22-.12-.46-.21-.71-.27-.33-.08-.68-.12-1.03-.12s-.67.02-.99.05c-.35.04-.68.1-1,.2-.3.09-.54.33-.61.64l-.29,1.19s-.08-.09-.13-.13c-.3-.3-.66-.54-1.05-.71-.36-.15-.74-.23-1.13-.23-.08,0-.15,0-.23,0-.08,0-.15.01-.22.02l-.04-.95c0-.25-.13-.49-.32-.65-.16-.13-.36-.2-.56-.2-.04,0-.09,0-.13.01l-1.95.3c-.46.07-.79.48-.75.95l.09,1.08c-.53-.29-1.13-.44-1.79-.44-.43,0-.85.07-1.24.2-.02-.14-.07-.28-.16-.39-.17-.23-.43-.36-.71-.36-.01,0-.03,0-.04,0l-2.14.09c-.05-.11-.13-.2-.23-.25v-.87c0-.27-.22-.49-.48-.49,0,0-.01,0-.02,0-.15,0-.28.03-.39.06-.07.02-.13.03-.17.03,0,0-.01,0-.02,0-.01,0-.03,0-.04,0-.07,0-.13.01-.19.04-.16-.09-.34-.13-.53-.13h0c-.12,0-.23.02-.34.05l-.09-1.09c-.02-.25-.15-.49-.35-.64-.15-.12-.34-.18-.53-.18-.06,0-.12,0-.18.02l-3.81.79c-.45.09-.76.52-.7.98l1.8,13.62c.03.24.17.46.37.61.15.11.33.16.51.16.06,0,.12,0,.19-.02l3.48-.75c.46-.1.76-.54.69-1l-.02-.13.56.81c.17.25.45.38.73.38.17,0,.34-.05.49-.15l2.67-1.77.04,1.76c0,.45.36.82.81.86l1.39.12s.05,0,.08,0c.11,0,.21-.02.31-.06.09.03.19.05.29.05.02,0,.05,0,.07,0l1.44-.12s.05,0,.07,0c.14.09.3.13.46.13.02,0,.05,0,.07,0l1.44-.12c.13-.01.25-.05.36-.11.31.18.66.27,1.06.27.27,0,.53-.04.76-.12.1.04.21.06.32.06.01,0,.03,0,.04,0l1.22-.05c.09,0,.17-.02.24-.05.18.04.36.08.54.1.21.03.44.04.66.04.29,0,.57-.02.85-.07.32-.06.61-.16.86-.3.08-.05.16-.1.24-.16.02.02.03.03.05.04.4.32.92.49,1.55.49.08,0,.16,0,.24,0,.09,0,.19-.01.28-.02.23-.03.43-.15.57-.32.08.04.16.08.24.12.26.11.54.16.83.16.24,0,.46-.03.68-.09.12.06.25.09.38.09.02,0,.05,0,.07,0l1.33-.11s.07,0,.11-.02c.16.13.35.2.56.2.02,0,.05,0,.07,0l1.49-.12c.26-.02.49-.16.64-.35.14.1.29.18.45.25.26.11.54.16.83.16.24,0,.46-.03.68-.09.12.06.25.09.38.09.02,0,.05,0,.07,0l1.33-.11c.45-.04.8-.41.81-.86l.07-2.51s0,0,0-.01c0-.41-.07-.78-.23-1.09-.16-.3-.37-.56-.64-.75-.25-.18-.54-.32-.86-.39-.28-.07-.56-.1-.85-.1-.27,0-.54.01-.8.04-.18.02-.36.05-.53.09l-.1-.67c0-.06-.03-.12-.05-.18.04,0,.08,0,.12,0,.17-.03.34-.07.51-.12"/>
      <path class="cls-17" d="M67.77,113.22c0-.08-.03-.15-.09-.21-.06-.05-.14-.08-.25-.08s-.19.03-.25.1c-.06.07-.09.13-.09.21l.04,2.27-1.44.12.03-2.39c0-.09-.03-.16-.09-.22-.07-.06-.15-.08-.26-.08-.08,0-.16.03-.24.08-.07.05-.11.13-.1.23l.07,2.39-1.39-.12-.08-3.77,1.35-.12v.61h.01c.14-.19.3-.34.48-.45.18-.11.39-.16.65-.16.21,0,.38.03.52.1.14.06.27.16.38.3.11-.12.25-.22.39-.29.15-.07.31-.11.48-.11.2,0,.37.03.53.1.15.07.28.16.38.29.1.12.18.27.24.43.06.17.09.34.09.53l.04,2.53-1.44.12.04-2.41Z"/>
      <path class="cls-17" d="M71.74,115h-.01c-.09.24-.23.42-.41.52-.19.1-.41.15-.66.15-.33,0-.6-.1-.81-.3-.21-.2-.31-.48-.31-.86v-2.78l1.48-.12-.04,2.45c0,.11.02.18.07.23.05.05.13.07.24.07.09,0,.16-.02.22-.07.06-.04.08-.12.08-.23l-.04-2.34,1.53-.12-.1,3.95-1.22.05v-.61Z"/>
      <path class="cls-17" d="M73.71,114.36c.12.02.25.03.39.03.06,0,.13,0,.2,0,.07,0,.13,0,.19-.02.06-.01.1-.03.14-.06.04-.03.06-.07.06-.12,0-.07-.03-.12-.1-.15-.07-.03-.15-.07-.25-.1-.1-.03-.21-.07-.33-.11-.12-.04-.23-.1-.33-.19-.1-.08-.18-.19-.25-.33-.07-.14-.1-.32-.1-.54,0-.15.03-.29.09-.43.06-.14.15-.27.28-.38.13-.11.29-.21.5-.28.2-.07.45-.11.74-.11.11,0,.22,0,.33.01.11,0,.22.02.31.04.1.02.19.03.28.05.08.02.15.03.21.04v1.17c-.11-.03-.22-.05-.32-.07-.11-.02-.22-.03-.34-.03-.03,0-.07,0-.13,0-.06,0-.11,0-.17.02-.06.01-.11.03-.15.06-.04.03-.07.06-.07.11,0,.07.04.12.11.16.07.04.16.07.26.1.1.03.22.07.34.11.12.04.24.11.34.19.1.08.19.19.26.33.07.14.11.32.11.54,0,.24-.05.44-.16.6-.1.16-.24.29-.41.38-.17.1-.37.16-.59.2-.22.04-.45.06-.69.06-.19,0-.37-.01-.55-.03-.18-.02-.36-.06-.54-.11v-1.24c.12.04.24.06.36.09"/>
      <path class="cls-17" d="M78.2,115.65c-.06,0-.13,0-.21,0-.42,0-.75-.1-.99-.29-.24-.19-.35-.51-.35-.94v-1.57h-.36s.04-1.14.04-1.14h.31v-.44l1.44-.65v1.09l.54-.08-.07,1.22h-.45v1.16c0,.13.02.22.06.27.04.04.12.07.26.07.06,0,.1,0,.14,0,.04,0,.07-.01.1-.02l-.23,1.31c-.07,0-.14.01-.2.02"/>
      <path class="cls-17" d="M81.22,115.13h-.01c-.12.17-.27.29-.45.35-.18.07-.38.1-.59.1-.18,0-.34-.03-.5-.1s-.3-.16-.42-.28c-.12-.12-.21-.26-.29-.43-.07-.17-.11-.36-.11-.56,0-.18.04-.35.11-.5.07-.15.17-.29.29-.4.12-.11.27-.2.43-.27.17-.06.35-.1.54-.1s.37.03.51.09c.14.06.26.13.35.2v-.2c0-.2-.07-.34-.2-.4-.13-.07-.3-.1-.52-.1-.19,0-.38.02-.54.06-.17.04-.34.09-.51.14l.26-1.05c.21-.06.43-.1.66-.13.23-.02.46-.04.7-.04.22,0,.43.03.64.08.21.05.39.13.55.25.16.11.28.26.37.44.09.18.14.4.13.67l-.07,2.51-1.33.11v-.45ZM80.38,113.91c-.15.02-.27.07-.37.16-.1.08-.14.17-.13.28.02.1.08.18.19.23.11.05.25.06.42.04.17-.03.3-.08.38-.17.08-.08.12-.17.1-.27-.01-.08-.07-.16-.17-.22-.1-.06-.24-.07-.43-.04"/>
      <path class="cls-17" d="M83.3,112.91h-.46l.21-1.14h.25c0-.24.03-.46.09-.65.06-.19.16-.36.28-.49.13-.13.29-.24.48-.31.19-.08.43-.11.7-.11.08,0,.14,0,.2.02.06.01.12.02.19.03l.17,1.1h-.23c-.15,0-.26.04-.33.11-.08.08-.12.18-.12.31h.57v1.14h-.57l.04,2.63-1.49.12v-2.75Z"/>
      <path class="cls-17" d="M87.84,115.13h-.01c-.12.17-.27.29-.45.35-.18.07-.38.1-.59.1-.18,0-.34-.03-.5-.1s-.3-.16-.42-.28c-.12-.12-.21-.26-.29-.43-.07-.17-.11-.36-.11-.56,0-.18.04-.35.11-.5.07-.15.17-.29.29-.4.12-.11.27-.2.43-.27.17-.06.35-.1.54-.1s.37.03.51.09c.14.06.26.13.35.2v-.2c0-.2-.07-.34-.2-.4-.13-.07-.3-.1-.52-.1-.19,0-.38.02-.54.06-.17.04-.34.09-.51.14l.26-1.05c.21-.06.43-.1.66-.13.23-.02.46-.04.7-.04.22,0,.43.03.64.08.21.05.39.13.55.25.16.11.28.26.37.44.09.18.14.4.13.67l-.07,2.51-1.33.11v-.45ZM87,113.91c-.15.02-.27.07-.37.16-.1.08-.14.17-.13.28.02.1.08.18.19.23.11.05.25.06.42.04.17-.03.3-.08.38-.17.08-.08.12-.17.1-.27-.01-.08-.07-.16-.17-.22-.1-.06-.24-.07-.43-.04"/>
      <polygon class="cls-14" points="52.19 101.9 55.99 101.11 56.56 108.3 56.59 108.29 57.77 104.65 61.55 104.49 59.89 109.03 62.92 112.62 59.62 114.81 56.88 110.84 56.84 110.84 57.48 114.77 53.99 115.52 52.19 101.9"/>
      <path class="cls-14" d="M66.22,109.87c-.37.27-.75.46-1.14.58-.39.12-.84.18-1.34.18-.41,0-.79-.07-1.14-.21-.34-.14-.64-.34-.89-.58-.25-.24-.44-.53-.58-.85-.14-.33-.21-.67-.21-1.04,0-.46.07-.86.22-1.22.15-.36.34-.66.59-.91.25-.25.54-.44.87-.57.33-.13.69-.2,1.06-.2.61,0,1.14.16,1.58.47.45.31.78.72,1,1.24l-2.73,2.05c.07.04.16.06.26.07.11.01.21.02.3.02.28,0,.52-.05.71-.15.19-.1.37-.22.52-.36l.9,1.49ZM64.27,106.87c-.09-.1-.18-.17-.28-.21-.1-.04-.21-.05-.34-.05s-.23.03-.33.08c-.1.05-.19.12-.26.21-.07.09-.13.19-.17.3-.04.11-.06.22-.06.34,0,.11,0,.19.02.23.02.05.03.09.06.14l1.36-1.03Z"/>
      <path class="cls-14" d="M69.4,104.93c.34-.02.65.03.95.15.29.13.55.3.78.53.23.22.41.49.55.78.14.3.22.6.24.92.03.42-.01.8-.13,1.14-.12.34-.29.63-.51.87-.22.24-.48.43-.79.57-.3.14-.63.22-.97.25-.26.02-.51,0-.74-.08-.24-.07-.46-.15-.66-.24l.03.36-1.34.1-.55-6.82,1.95-.3.09,2.21c.17-.11.33-.2.49-.28.16-.08.37-.13.63-.15M69.49,108.35c.13-.05.24-.11.34-.19.09-.08.16-.16.22-.26.05-.09.08-.19.09-.3,0-.1,0-.2-.04-.3-.04-.1-.09-.19-.16-.26-.07-.07-.16-.13-.26-.17-.1-.04-.21-.06-.34-.06-.12,0-.25.03-.38.07-.13.05-.25.11-.34.2-.09.08-.17.17-.22.26-.05.09-.08.19-.09.3,0,.1,0,.2.04.3.04.1.09.19.16.26.07.07.16.13.26.16.1.04.22.06.34.06.12,0,.25-.03.39-.08"/>
      <path class="cls-14" d="M75.14,108.53h-.02c-.15.22-.35.37-.58.45-.24.08-.49.13-.76.13-.23,0-.44-.04-.65-.12-.2-.08-.38-.2-.54-.35-.15-.15-.27-.34-.37-.55-.09-.22-.14-.46-.14-.72,0-.23.05-.45.14-.64.09-.2.21-.37.37-.51.16-.14.34-.26.55-.34.21-.08.44-.12.69-.12s.48.04.66.11c.18.08.33.16.45.26v-.25c0-.26-.08-.43-.25-.52-.17-.08-.39-.13-.66-.13-.25,0-.48.03-.7.08-.22.05-.43.11-.65.18l.33-1.35c.27-.08.55-.13.85-.17.29-.03.59-.05.9-.05.28,0,.55.03.82.1.27.07.5.17.7.32.2.15.36.34.48.57.12.23.18.52.17.86l-.09,3.21-1.71.14v-.58ZM74.06,106.96c-.19.03-.35.09-.48.2-.12.1-.18.22-.16.35.02.13.1.23.24.29.14.07.32.08.54.05.22-.03.39-.1.49-.21.11-.11.15-.22.13-.35-.02-.11-.09-.2-.22-.28-.13-.08-.31-.09-.55-.06"/>
      <path class="cls-14" d="M78.98,103.79v.58c.18-.2.37-.34.56-.44.2-.09.43-.14.7-.14.34,0,.65.08.93.23.28.15.52.35.71.59.2.24.35.52.45.83.11.31.16.62.16.94,0,.34-.06.67-.17.98-.11.31-.27.59-.48.84-.21.24-.45.44-.74.59-.29.15-.61.22-.95.22-.18,0-.36-.03-.56-.08-.2-.05-.38-.15-.54-.31l.05,1.69-1.79.15-.09-6.52,1.76-.15ZM80.14,107.08c.25-.12.43-.29.51-.5.09-.22.09-.42,0-.6-.09-.19-.25-.32-.46-.39-.22-.07-.45-.04-.71.08-.26.12-.44.29-.53.51-.09.21-.09.41,0,.61.05.1.11.18.19.24.08.07.17.11.28.14.1.03.22.04.34.03.12-.01.25-.05.38-.11"/>
      <polygon class="cls-14" points="87.61 104.23 89.51 104.07 89.41 108.97 87.61 109.13 87.61 104.23"/>
      <path class="cls-14" d="M84.99,108.58c.38,0,.7.2.74.48.02.15-.04.31-.18.45-.14.14-.34.23-.56.27-.06,0-.12.01-.17.01-.16,0-.32-.03-.44-.1-.17-.09-.27-.22-.3-.38-.02-.15.04-.31.18-.45.14-.14.34-.23.56-.27.06,0,.12-.01.17-.01"/>
      <path class="cls-14" d="M86.24,106.91l-.43.22c-.23.11-.45.14-.66.09-.21-.05-.37-.19-.48-.42-.06-.11-.09-.21-.09-.32,0-.1.02-.2.06-.29.04-.09.1-.17.18-.25.08-.08.17-.14.28-.2.06-.03.14-.05.24-.06.1,0,.2,0,.31.02.11.02.21.05.32.08.1.04.2.09.28.15l1.12-1.47c-.2-.14-.45-.27-.75-.4-.3-.13-.65-.2-1.05-.2s-.78.06-1.12.18c-.35.12-.64.3-.9.53-.25.23-.45.51-.59.84-.14.33-.21.7-.21,1.12,0,.36.07.69.2,1,.14.31.32.58.56.81.16.15.33.28.52.38.19-.19.46-.31.77-.36.08-.01.16-.02.24-.02.53,0,.96.27,1.02.66,0,0,0,.02,0,.02.13-.02.26-.05.39-.09.17-.05.34-.12.5-.2.16-.08.31-.19.45-.31l-1.16-1.53Z"/>
      <path class="cls-17" d="M56.67,103.32c-.04-1,1.31-1,1.26,0,.04,1-1.31,1-1.26,0M57.04,103.32c-.06.78.58.78.52,0,.06-.78-.58-.78-.52,0"/>
      <path class="cls-17" d="M58.03,104.06v-.17c.17-.01.26,0,.26-.17v-.72c0-.18-.07-.15-.26-.17v-.16c.23.02.41-.09.62-.09v1.14c0,.17.09.16.27.17v.17h-.89Z"/>
    </g>
  </g>
  <g>
    <rect class="cls-17" x="31.3" y="13.74" width="79.13" height="79.13" rx="4.17" ry="4.17"/>
    <rect class="cls-14" x="34.29" y="16.73" width="73.14" height="73.14" rx="2.81" ry="2.81"/>
    <g id="qr-dots">
      <rect class="cls-5" x="36.91" y="19.34" width="2.72" height="2.72"/>
      <rect class="cls-5" x="39.62" y="19.34" width="2.72" height="2.72"/>
      <rect class="cls-5" x="42.34" y="19.34" width="2.72" height="2.72"/>
      <rect class="cls-5" x="45.06" y="19.34" width="2.72" height="2.72"/>
      <rect class="cls-5" x="47.77" y="19.34" width="2.72" height="2.72"/>
      <rect class="cls-5" x="50.49" y="19.34" width="2.72" height="2.72"/>
      <rect class="cls-5" x="53.21" y="19.34" width="2.72" height="2.72"/>
      <rect class="cls-5" x="61.36" y="19.34" width="2.72" height="2.72"/>
      <rect class="cls-5" x="69.51" y="19.34" width="2.72" height="2.72"/>
      <rect class="cls-5" x="72.22" y="19.34" width="2.72" height="2.72"/>
      <rect class="cls-5" x="74.94" y="19.34" width="2.72" height="2.72"/>
      <rect class="cls-5" x="77.66" y="19.34" width="2.72" height="2.72"/>
      <rect class="cls-5" x="85.81" y="19.34" width="2.72" height="2.72"/>
      <rect class="cls-5" x="88.53" y="19.34" width="2.72" height="2.72"/>
      <rect class="cls-5" x="91.24" y="19.34" width="2.72" height="2.72"/>
      <rect class="cls-5" x="93.96" y="19.34" width="2.72" height="2.72"/>
      <rect class="cls-5" x="96.68" y="19.34" width="2.72" height="2.72"/>
      <rect class="cls-5" x="99.39" y="19.34" width="2.72" height="2.72"/>
      <rect class="cls-5" x="102.11" y="19.34" width="2.72" height="2.72"/>
      <rect class="cls-5" x="36.91" y="22.06" width="2.72" height="2.72"/>
      <rect class="cls-5" x="53.21" y="22.06" width="2.72" height="2.72"/>
      <rect class="cls-5" x="64.07" y="22.06" width="2.72" height="2.72"/>
      <rect class="cls-5" x="66.79" y="22.06" width="2.72" height="2.72"/>
      <rect class="cls-5" x="69.51" y="22.06" width="2.72" height="2.72"/>
      <rect class="cls-5" x="74.94" y="22.06" width="2.72" height="2.72"/>
      <rect class="cls-5" x="77.66" y="22.06" width="2.72" height="2.72"/>
      <rect class="cls-5" x="80.38" y="22.06" width="2.72" height="2.72"/>
      <rect class="cls-5" x="85.81" y="22.06" width="2.72" height="2.72"/>
      <rect class="cls-5" x="102.11" y="22.06" width="2.72" height="2.72"/>
      <rect class="cls-5" x="36.91" y="24.78" width="2.72" height="2.72"/>
      <rect class="cls-5" x="42.34" y="24.78" width="2.72" height="2.72"/>
      <rect class="cls-5" x="45.06" y="24.78" width="2.72" height="2.72"/>
      <rect class="cls-5" x="47.77" y="24.78" width="2.72" height="2.72"/>
      <rect class="cls-5" x="53.21" y="24.78" width="2.72" height="2.72"/>
      <rect class="cls-5" x="58.64" y="24.78" width="2.72" height="2.72"/>
      <rect class="cls-5" x="61.36" y="24.78" width="2.72" height="2.72"/>
      <rect class="cls-5" x="64.07" y="24.78" width="2.72" height="2.72"/>
      <rect class="cls-5" x="69.51" y="24.78" width="2.72" height="2.72"/>
      <rect class="cls-5" x="77.66" y="24.78" width="2.72" height="2.72"/>
      <rect class="cls-5" x="80.38" y="24.78" width="2.72" height="2.72"/>
      <rect class="cls-5" x="85.81" y="24.78" width="2.72" height="2.72"/>
      <rect class="cls-5" x="91.24" y="24.78" width="2.72" height="2.72"/>
      <rect class="cls-5" x="93.96" y="24.78" width="2.72" height="2.72"/>
      <rect class="cls-5" x="96.68" y="24.78" width="2.72" height="2.72"/>
      <rect class="cls-5" x="102.11" y="24.78" width="2.72" height="2.72"/>
      <rect class="cls-5" x="36.91" y="27.49" width="2.72" height="2.72"/>
      <rect class="cls-5" x="42.34" y="27.49" width="2.72" height="2.72"/>
      <rect class="cls-5" x="45.06" y="27.49" width="2.72" height="2.72"/>
      <rect class="cls-5" x="47.77" y="27.49" width="2.72" height="2.72"/>
      <rect class="cls-5" x="53.21" y="27.49" width="2.72" height="2.72"/>
      <rect class="cls-5" x="61.36" y="27.49" width="2.72" height="2.72"/>
      <rect class="cls-5" x="64.07" y="27.49" width="2.72" height="2.72"/>
      <rect class="cls-5" x="66.79" y="27.49" width="2.72" height="2.72"/>
      <rect class="cls-5" x="74.94" y="27.49" width="2.72" height="2.72"/>
      <rect class="cls-5" x="77.66" y="27.49" width="2.72" height="2.72"/>
      <rect class="cls-5" x="85.81" y="27.49" width="2.72" height="2.72"/>
      <rect class="cls-5" x="91.24" y="27.49" width="2.72" height="2.72"/>
      <rect class="cls-5" x="93.96" y="27.49" width="2.72" height="2.72"/>
      <rect class="cls-5" x="96.68" y="27.49" width="2.72" height="2.72"/>
      <rect class="cls-5" x="102.11" y="27.49" width="2.72" height="2.72"/>
      <rect class="cls-5" x="36.91" y="30.21" width="2.72" height="2.72"/>
      <rect class="cls-5" x="42.34" y="30.21" width="2.72" height="2.72"/>
      <rect class="cls-5" x="45.06" y="30.21" width="2.72" height="2.72"/>
      <rect class="cls-5" x="47.77" y="30.21" width="2.72" height="2.72"/>
      <rect class="cls-5" x="53.21" y="30.21" width="2.72" height="2.72"/>
      <rect class="cls-5" x="64.07" y="30.21" width="2.72" height="2.72"/>
      <rect class="cls-5" x="72.22" y="30.21" width="2.72" height="2.72"/>
      <rect class="cls-5" x="74.94" y="30.21" width="2.72" height="2.72"/>
      <rect class="cls-5" x="77.66" y="30.21" width="2.72" height="2.72"/>
      <rect class="cls-5" x="85.81" y="30.21" width="2.72" height="2.72"/>
      <rect class="cls-5" x="91.24" y="30.21" width="2.72" height="2.72"/>
      <rect class="cls-5" x="93.96" y="30.21" width="2.72" height="2.72"/>
      <rect class="cls-5" x="96.68" y="30.21" width="2.72" height="2.72"/>
      <rect class="cls-5" x="102.11" y="30.21" width="2.72" height="2.72"/>
      <rect class="cls-5" x="36.91" y="32.93" width="2.72" height="2.72"/>
      <rect class="cls-5" x="53.21" y="32.93" width="2.72" height="2.72"/>
      <rect class="cls-5" x="61.36" y="32.93" width="2.72" height="2.72"/>
      <rect class="cls-5" x="72.22" y="32.93" width="2.72" height="2.72"/>
      <rect class="cls-5" x="74.94" y="32.93" width="2.72" height="2.72"/>
      <rect class="cls-5" x="77.66" y="32.93" width="2.72" height="2.72"/>
      <rect class="cls-5" x="85.81" y="32.93" width="2.72" height="2.72"/>
      <rect class="cls-5" x="102.11" y="32.93" width="2.72" height="2.72"/>
      <rect class="cls-5" x="36.91" y="35.64" width="2.72" height="2.72"/>
      <rect class="cls-5" x="39.62" y="35.64" width="2.72" height="2.72"/>
      <rect class="cls-5" x="42.34" y="35.64" width="2.72" height="2.72"/>
      <rect class="cls-5" x="45.06" y="35.64" width="2.72" height="2.72"/>
      <rect class="cls-5" x="47.77" y="35.64" width="2.72" height="2.72"/>
      <rect class="cls-5" x="50.49" y="35.64" width="2.72" height="2.72"/>
      <rect class="cls-5" x="53.21" y="35.64" width="2.72" height="2.72"/>
      <rect class="cls-5" x="58.64" y="35.64" width="2.72" height="2.72"/>
      <rect class="cls-5" x="64.07" y="35.64" width="2.72" height="2.72"/>
      <rect class="cls-5" x="69.51" y="35.64" width="2.72" height="2.72"/>
      <rect class="cls-5" x="74.94" y="35.64" width="2.72" height="2.72"/>
      <rect class="cls-5" x="80.38" y="35.64" width="2.72" height="2.72"/>
      <rect class="cls-5" x="85.81" y="35.64" width="2.72" height="2.72"/>
      <rect class="cls-5" x="88.53" y="35.64" width="2.72" height="2.72"/>
      <rect class="cls-5" x="91.24" y="35.64" width="2.72" height="2.72"/>
      <rect class="cls-5" x="93.96" y="35.64" width="2.72" height="2.72"/>
      <rect class="cls-5" x="96.68" y="35.64" width="2.72" height="2.72"/>
      <rect class="cls-5" x="99.39" y="35.64" width="2.72" height="2.72"/>
      <rect class="cls-5" x="102.11" y="35.64" width="2.72" height="2.72"/>
      <rect class="cls-5" x="58.64" y="38.36" width="2.72" height="2.72"/>
      <rect class="cls-5" x="61.36" y="38.36" width="2.72" height="2.72"/>
      <rect class="cls-5" x="64.07" y="38.36" width="2.72" height="2.72"/>
      <rect class="cls-5" x="69.51" y="38.36" width="2.72" height="2.72"/>
      <rect class="cls-5" x="72.22" y="38.36" width="2.72" height="2.72"/>
      <rect class="cls-5" x="74.94" y="38.36" width="2.72" height="2.72"/>
      <rect class="cls-5" x="80.38" y="38.36" width="2.72" height="2.72"/>
      <rect class="cls-5" x="36.91" y="41.08" width="2.72" height="2.72"/>
      <rect class="cls-5" x="39.62" y="41.08" width="2.72" height="2.72"/>
      <rect class="cls-5" x="42.34" y="41.08" width="2.72" height="2.72"/>
      <rect class="cls-5" x="47.77" y="41.08" width="2.72" height="2.72"/>
      <rect class="cls-5" x="50.49" y="41.08" width="2.72" height="2.72"/>
      <rect class="cls-5" x="53.21" y="41.08" width="2.72" height="2.72"/>
      <rect class="cls-5" x="55.92" y="41.08" width="2.72" height="2.72"/>
      <rect class="cls-5" x="58.64" y="41.08" width="2.72" height="2.72"/>
      <rect class="cls-5" x="64.07" y="41.08" width="2.72" height="2.72"/>
      <rect class="cls-5" x="66.79" y="41.08" width="2.72" height="2.72"/>
      <rect class="cls-5" x="72.22" y="41.08" width="2.72" height="2.72"/>
      <rect class="cls-5" x="74.94" y="41.08" width="2.72" height="2.72"/>
      <rect class="cls-5" x="77.66" y="41.08" width="2.72" height="2.72"/>
      <rect class="cls-5" x="80.38" y="41.08" width="2.72" height="2.72"/>
      <rect class="cls-5" x="83.09" y="41.08" width="2.72" height="2.72"/>
      <rect class="cls-5" x="85.81" y="41.08" width="2.72" height="2.72"/>
      <rect class="cls-5" x="96.68" y="41.08" width="2.72" height="2.72"/>
      <rect class="cls-5" x="36.91" y="43.79" width="2.72" height="2.72"/>
      <rect class="cls-5" x="45.06" y="43.79" width="2.72" height="2.72"/>
      <rect class="cls-5" x="47.77" y="43.79" width="2.72" height="2.72"/>
      <rect class="cls-5" x="58.64" y="43.79" width="2.72" height="2.72"/>
      <rect class="cls-5" x="64.07" y="43.79" width="2.72" height="2.72"/>
      <rect class="cls-5" x="66.79" y="43.79" width="2.72" height="2.72"/>
      <rect class="cls-5" x="85.81" y="43.79" width="2.72" height="2.72"/>
      <rect class="cls-5" x="102.11" y="43.79" width="2.72" height="2.72"/>
      <rect class="cls-5" x="42.34" y="46.51" width="2.72" height="2.72"/>
      <rect class="cls-5" x="45.06" y="46.51" width="2.72" height="2.72"/>
      <rect class="cls-5" x="53.21" y="46.51" width="2.72" height="2.72"/>
      <rect class="cls-5" x="55.92" y="46.51" width="2.72" height="2.72"/>
      <rect class="cls-5" x="61.36" y="46.51" width="2.72" height="2.72"/>
      <rect class="cls-5" x="72.22" y="46.51" width="2.72" height="2.72"/>
      <rect class="cls-5" x="83.09" y="46.51" width="2.72" height="2.72"/>
      <rect class="cls-5" x="85.81" y="46.51" width="2.72" height="2.72"/>
      <rect class="cls-5" x="88.53" y="46.51" width="2.72" height="2.72"/>
      <rect class="cls-5" x="96.68" y="46.51" width="2.72" height="2.72"/>
      <rect class="cls-5" x="99.39" y="46.51" width="2.72" height="2.72"/>
      <rect class="cls-5" x="102.11" y="46.51" width="2.72" height="2.72"/>
      <rect class="cls-5" x="42.34" y="49.23" width="2.72" height="2.72"/>
      <rect class="cls-5" x="55.92" y="49.23" width="2.72" height="2.72"/>
      <rect class="cls-5" x="58.64" y="49.23" width="2.72" height="2.72"/>
      <rect class="cls-5" x="66.79" y="49.23" width="2.72" height="2.72"/>
      <rect class="cls-5" x="72.22" y="49.23" width="2.72" height="2.72"/>
      <rect class="cls-5" x="74.94" y="49.23" width="2.72" height="2.72"/>
      <rect class="cls-5" x="77.66" y="49.23" width="2.72" height="2.72"/>
      <rect class="cls-5" x="80.38" y="49.23" width="2.72" height="2.72"/>
      <rect class="cls-5" x="88.53" y="49.23" width="2.72" height="2.72"/>
      <rect class="cls-5" x="99.39" y="49.23" width="2.72" height="2.72"/>
      <rect class="cls-5" x="36.91" y="51.94" width="2.72" height="2.72"/>
      <rect class="cls-5" x="39.62" y="51.94" width="2.72" height="2.72"/>
      <rect class="cls-5" x="47.77" y="51.94" width="2.72" height="2.72"/>
      <rect class="cls-5" x="53.21" y="51.94" width="2.72" height="2.72"/>
      <rect class="cls-5" x="55.92" y="51.94" width="2.72" height="2.72"/>
      <rect class="cls-5" x="58.64" y="51.94" width="2.72" height="2.72"/>
      <rect class="cls-5" x="69.51" y="51.94" width="2.72" height="2.72"/>
      <rect class="cls-5" x="72.22" y="51.94" width="2.72" height="2.72"/>
      <rect class="cls-5" x="80.38" y="51.94" width="2.72" height="2.72"/>
      <rect class="cls-5" x="83.09" y="51.94" width="2.72" height="2.72"/>
      <rect class="cls-5" x="85.81" y="51.94" width="2.72" height="2.72"/>
      <rect class="cls-5" x="88.53" y="51.94" width="2.72" height="2.72"/>
      <rect class="cls-5" x="93.96" y="51.94" width="2.72" height="2.72"/>
      <rect class="cls-5" x="99.39" y="51.94" width="2.72" height="2.72"/>
      <rect class="cls-5" x="102.11" y="51.94" width="2.72" height="2.72"/>
      <rect class="cls-5" x="39.62" y="54.66" width="2.72" height="2.72"/>
      <rect class="cls-5" x="47.77" y="54.66" width="2.72" height="2.72"/>
      <rect class="cls-5" x="50.49" y="54.66" width="2.72" height="2.72"/>
      <rect class="cls-5" x="55.92" y="54.66" width="2.72" height="2.72"/>
      <rect class="cls-5" x="66.79" y="54.66" width="2.72" height="2.72"/>
      <rect class="cls-5" x="69.51" y="54.66" width="2.72" height="2.72"/>
      <rect class="cls-5" x="72.22" y="54.66" width="2.72" height="2.72"/>
      <rect class="cls-5" x="74.94" y="54.66" width="2.72" height="2.72"/>
      <rect class="cls-5" x="80.38" y="54.66" width="2.72" height="2.72"/>
      <rect class="cls-5" x="85.81" y="54.66" width="2.72" height="2.72"/>
      <rect class="cls-5" x="93.96" y="54.66" width="2.72" height="2.72"/>
      <rect class="cls-5" x="102.11" y="54.66" width="2.72" height="2.72"/>
      <rect class="cls-5" x="36.91" y="57.38" width="2.72" height="2.72"/>
      <rect class="cls-5" x="47.77" y="57.38" width="2.72" height="2.72"/>
      <rect class="cls-5" x="50.49" y="57.38" width="2.72" height="2.72"/>
      <rect class="cls-5" x="53.21" y="57.38" width="2.72" height="2.72"/>
      <rect class="cls-5" x="55.92" y="57.38" width="2.72" height="2.72"/>
      <rect class="cls-5" x="58.64" y="57.38" width="2.72" height="2.72"/>
      <rect class="cls-5" x="61.36" y="57.38" width="2.72" height="2.72"/>
      <rect class="cls-5" x="64.07" y="57.38" width="2.72" height="2.72"/>
      <rect class="cls-5" x="66.79" y="57.38" width="2.72" height="2.72"/>
      <rect class="cls-5" x="69.51" y="57.38" width="2.72" height="2.72"/>
      <rect class="cls-5" x="74.94" y="57.38" width="2.72" height="2.72"/>
      <rect class="cls-5" x="83.09" y="57.38" width="2.72" height="2.72"/>
      <rect class="cls-5" x="85.81" y="57.38" width="2.72" height="2.72"/>
      <rect class="cls-5" x="88.53" y="57.38" width="2.72" height="2.72"/>
      <rect class="cls-5" x="96.68" y="57.38" width="2.72" height="2.72"/>
      <rect class="cls-5" x="99.39" y="57.38" width="2.72" height="2.72"/>
      <rect class="cls-5" x="102.11" y="57.38" width="2.72" height="2.72"/>
      <rect class="cls-5" x="39.62" y="60.09" width="2.72" height="2.72"/>
      <rect class="cls-5" x="42.34" y="60.09" width="2.72" height="2.72"/>
      <rect class="cls-5" x="50.49" y="60.09" width="2.72" height="2.72"/>
      <rect class="cls-5" x="55.92" y="60.09" width="2.72" height="2.72"/>
      <rect class="cls-5" x="64.07" y="60.09" width="2.72" height="2.72"/>
      <rect class="cls-5" x="69.51" y="60.09" width="2.72" height="2.72"/>
      <rect class="cls-5" x="72.22" y="60.09" width="2.72" height="2.72"/>
      <rect class="cls-5" x="74.94" y="60.09" width="2.72" height="2.72"/>
      <rect class="cls-5" x="77.66" y="60.09" width="2.72" height="2.72"/>
      <rect class="cls-5" x="83.09" y="60.09" width="2.72" height="2.72"/>
      <rect class="cls-5" x="91.24" y="60.09" width="2.72" height="2.72"/>
      <rect class="cls-5" x="99.39" y="60.09" width="2.72" height="2.72"/>
      <rect class="cls-5" x="36.91" y="62.81" width="2.72" height="2.72"/>
      <rect class="cls-5" x="42.34" y="62.81" width="2.72" height="2.72"/>
      <rect class="cls-5" x="47.77" y="62.81" width="2.72" height="2.72"/>
      <rect class="cls-5" x="50.49" y="62.81" width="2.72" height="2.72"/>
      <rect class="cls-5" x="53.21" y="62.81" width="2.72" height="2.72"/>
      <rect class="cls-5" x="55.92" y="62.81" width="2.72" height="2.72"/>
      <rect class="cls-5" x="61.36" y="62.81" width="2.72" height="2.72"/>
      <rect class="cls-5" x="66.79" y="62.81" width="2.72" height="2.72"/>
      <rect class="cls-5" x="72.22" y="62.81" width="2.72" height="2.72"/>
      <rect class="cls-5" x="77.66" y="62.81" width="2.72" height="2.72"/>
      <rect class="cls-5" x="80.38" y="62.81" width="2.72" height="2.72"/>
      <rect class="cls-5" x="83.09" y="62.81" width="2.72" height="2.72"/>
      <rect class="cls-5" x="85.81" y="62.81" width="2.72" height="2.72"/>
      <rect class="cls-5" x="88.53" y="62.81" width="2.72" height="2.72"/>
      <rect class="cls-5" x="91.24" y="62.81" width="2.72" height="2.72"/>
      <rect class="cls-5" x="93.96" y="62.81" width="2.72" height="2.72"/>
      <rect class="cls-5" x="58.64" y="65.53" width="2.72" height="2.72"/>
      <rect class="cls-5" x="61.36" y="65.53" width="2.72" height="2.72"/>
      <rect class="cls-5" x="66.79" y="65.53" width="2.72" height="2.72"/>
      <rect class="cls-5" x="72.22" y="65.53" width="2.72" height="2.72"/>
      <rect class="cls-5" x="74.94" y="65.53" width="2.72" height="2.72"/>
      <rect class="cls-5" x="80.38" y="65.53" width="2.72" height="2.72"/>
      <rect class="cls-5" x="91.24" y="65.53" width="2.72" height="2.72"/>
      <rect class="cls-5" x="93.96" y="65.53" width="2.72" height="2.72"/>
      <rect class="cls-5" x="99.39" y="65.53" width="2.72" height="2.72"/>
      <rect class="cls-5" x="102.11" y="65.53" width="2.72" height="2.72"/>
      <rect class="cls-5" x="36.91" y="68.24" width="2.72" height="2.72"/>
      <rect class="cls-5" x="39.62" y="68.24" width="2.72" height="2.72"/>
      <rect class="cls-5" x="42.34" y="68.24" width="2.72" height="2.72"/>
      <rect class="cls-5" x="45.06" y="68.24" width="2.72" height="2.72"/>
      <rect class="cls-5" x="47.77" y="68.24" width="2.72" height="2.72"/>
      <rect class="cls-5" x="50.49" y="68.24" width="2.72" height="2.72"/>
      <rect class="cls-5" x="53.21" y="68.24" width="2.72" height="2.72"/>
      <rect class="cls-5" x="58.64" y="68.24" width="2.72" height="2.72"/>
      <rect class="cls-5" x="64.07" y="68.24" width="2.72" height="2.72"/>
      <rect class="cls-5" x="72.22" y="68.24" width="2.72" height="2.72"/>
      <rect class="cls-5" x="74.94" y="68.24" width="2.72" height="2.72"/>
      <rect class="cls-5" x="77.66" y="68.24" width="2.72" height="2.72"/>
      <rect class="cls-5" x="80.38" y="68.24" width="2.72" height="2.72"/>
      <rect class="cls-5" x="85.81" y="68.24" width="2.72" height="2.72"/>
      <rect class="cls-5" x="91.24" y="68.24" width="2.72" height="2.72"/>
      <rect class="cls-5" x="93.96" y="68.24" width="2.72" height="2.72"/>
      <rect class="cls-5" x="99.39" y="68.24" width="2.72" height="2.72"/>
      <rect class="cls-5" x="102.11" y="68.24" width="2.72" height="2.72"/>
      <rect class="cls-5" x="36.91" y="70.96" width="2.72" height="2.72"/>
      <rect class="cls-5" x="53.21" y="70.96" width="2.72" height="2.72"/>
      <rect class="cls-5" x="58.64" y="70.96" width="2.72" height="2.72"/>
      <rect class="cls-5" x="61.36" y="70.96" width="2.72" height="2.72"/>
      <rect class="cls-5" x="66.79" y="70.96" width="2.72" height="2.72"/>
      <rect class="cls-5" x="72.22" y="70.96" width="2.72" height="2.72"/>
      <rect class="cls-5" x="80.38" y="70.96" width="2.72" height="2.72"/>
      <rect class="cls-5" x="91.24" y="70.96" width="2.72" height="2.72"/>
      <rect class="cls-5" x="93.96" y="70.96" width="2.72" height="2.72"/>
      <rect class="cls-5" x="102.11" y="70.96" width="2.72" height="2.72"/>
      <rect class="cls-5" x="36.91" y="73.68" width="2.72" height="2.72"/>
      <rect class="cls-5" x="42.34" y="73.68" width="2.72" height="2.72"/>
      <rect class="cls-5" x="45.06" y="73.68" width="2.72" height="2.72"/>
      <rect class="cls-5" x="47.77" y="73.68" width="2.72" height="2.72"/>
      <rect class="cls-5" x="53.21" y="73.68" width="2.72" height="2.72"/>
      <rect class="cls-5" x="58.64" y="73.68" width="2.72" height="2.72"/>
      <rect class="cls-5" x="61.36" y="73.68" width="2.72" height="2.72"/>
      <rect class="cls-5" x="69.51" y="73.68" width="2.72" height="2.72"/>
      <rect class="cls-5" x="72.22" y="73.68" width="2.72" height="2.72"/>
      <rect class="cls-5" x="80.38" y="73.68" width="2.72" height="2.72"/>
      <rect class="cls-5" x="83.09" y="73.68" width="2.72" height="2.72"/>
      <rect class="cls-5" x="85.81" y="73.68" width="2.72" height="2.72"/>
      <rect class="cls-5" x="88.53" y="73.68" width="2.72" height="2.72"/>
      <rect class="cls-5" x="91.24" y="73.68" width="2.72" height="2.72"/>
      <rect class="cls-5" x="93.96" y="73.68" width="2.72" height="2.72"/>
      <rect class="cls-5" x="99.39" y="73.68" width="2.72" height="2.72"/>
      <rect class="cls-5" x="102.11" y="73.68" width="2.72" height="2.72"/>
      <rect class="cls-5" x="36.91" y="76.4" width="2.72" height="2.72"/>
      <rect class="cls-5" x="42.34" y="76.4" width="2.72" height="2.72"/>
      <rect class="cls-5" x="45.06" y="76.4" width="2.72" height="2.72"/>
      <rect class="cls-5" x="47.77" y="76.4" width="2.72" height="2.72"/>
      <rect class="cls-5" x="53.21" y="76.4" width="2.72" height="2.72"/>
      <rect class="cls-5" x="61.36" y="76.4" width="2.72" height="2.72"/>
      <rect class="cls-5" x="64.07" y="76.4" width="2.72" height="2.72"/>
      <rect class="cls-5" x="66.79" y="76.4" width="2.72" height="2.72"/>
      <rect class="cls-5" x="69.51" y="76.4" width="2.72" height="2.72"/>
      <rect class="cls-5" x="88.53" y="76.4" width="2.72" height="2.72"/>
      <rect class="cls-5" x="91.24" y="76.4" width="2.72" height="2.72"/>
      <rect class="cls-5" x="93.96" y="76.4" width="2.72" height="2.72"/>
      <rect class="cls-5" x="96.68" y="76.4" width="2.72" height="2.72"/>
      <rect class="cls-5" x="36.91" y="79.11" width="2.72" height="2.72"/>
      <rect class="cls-5" x="42.34" y="79.11" width="2.72" height="2.72"/>
      <rect class="cls-5" x="45.06" y="79.11" width="2.72" height="2.72"/>
      <rect class="cls-5" x="47.77" y="79.11" width="2.72" height="2.72"/>
      <rect class="cls-5" x="53.21" y="79.11" width="2.72" height="2.72"/>
      <rect class="cls-5" x="58.64" y="79.11" width="2.72" height="2.72"/>
      <rect class="cls-5" x="61.36" y="79.11" width="2.72" height="2.72"/>
      <rect class="cls-5" x="64.07" y="79.11" width="2.72" height="2.72"/>
      <rect class="cls-5" x="66.79" y="79.11" width="2.72" height="2.72"/>
      <rect class="cls-5" x="69.51" y="79.11" width="2.72" height="2.72"/>
      <rect class="cls-5" x="91.24" y="79.11" width="2.72" height="2.72"/>
      <rect class="cls-5" x="102.11" y="79.11" width="2.72" height="2.72"/>
      <rect class="cls-5" x="36.91" y="81.83" width="2.72" height="2.72"/>
      <rect class="cls-5" x="53.21" y="81.83" width="2.72" height="2.72"/>
      <rect class="cls-5" x="58.64" y="81.83" width="2.72" height="2.72"/>
      <rect class="cls-5" x="69.51" y="81.83" width="2.72" height="2.72"/>
      <rect class="cls-5" x="72.22" y="81.83" width="2.72" height="2.72"/>
      <rect class="cls-5" x="74.94" y="81.83" width="2.72" height="2.72"/>
      <rect class="cls-5" x="77.66" y="81.83" width="2.72" height="2.72"/>
      <rect class="cls-5" x="80.38" y="81.83" width="2.72" height="2.72"/>
      <rect class="cls-5" x="85.81" y="81.83" width="2.72" height="2.72"/>
      <rect class="cls-5" x="91.24" y="81.83" width="2.72" height="2.72"/>
      <rect class="cls-5" x="93.96" y="81.83" width="2.72" height="2.72"/>
      <rect class="cls-5" x="99.39" y="81.83" width="2.72" height="2.72"/>
      <rect class="cls-5" x="36.91" y="84.55" width="2.72" height="2.72"/>
      <rect class="cls-5" x="39.62" y="84.55" width="2.72" height="2.72"/>
      <rect class="cls-5" x="42.34" y="84.55" width="2.72" height="2.72"/>
      <rect class="cls-5" x="45.06" y="84.55" width="2.72" height="2.72"/>
      <rect class="cls-5" x="47.77" y="84.55" width="2.72" height="2.72"/>
      <rect class="cls-5" x="50.49" y="84.55" width="2.72" height="2.72"/>
      <rect class="cls-5" x="53.21" y="84.55" width="2.72" height="2.72"/>
      <rect class="cls-5" x="58.64" y="84.55" width="2.72" height="2.72"/>
      <rect class="cls-5" x="66.79" y="84.55" width="2.72" height="2.72"/>
      <rect class="cls-5" x="69.51" y="84.55" width="2.72" height="2.72"/>
      <rect class="cls-5" x="74.94" y="84.55" width="2.72" height="2.72"/>
      <rect class="cls-5" x="77.66" y="84.55" width="2.72" height="2.72"/>
      <rect class="cls-5" x="80.38" y="84.55" width="2.72" height="2.72"/>
      <rect class="cls-5" x="85.81" y="84.55" width="2.72" height="2.72"/>
      <rect class="cls-5" x="88.53" y="84.55" width="2.72" height="2.72"/>
      <rect class="cls-5" x="99.39" y="84.55" width="2.72" height="2.72"/>
      <rect class="cls-5" x="102.11" y="84.55" width="2.72" height="2.72"/>
    </g>
  </g>
  <text class="cls-13" transform="translate(24.84 133.66)"><tspan x="0" y="0">BİZE ULAŞIN!</tspan></text>
  <g>
    <rect class="cls-5" x="59.31" y="4.06" width="23.11" height="8.22" rx="1.43" ry="1.43"/>
    <text class="cls-15" transform="translate(62.82 10.66)"><tspan x="0" y="0">M-2</tspan></text>
  </g>
  <g>
    <path class="cls-8" d="M128.64,21.76c-.95-5.89-6.49-9.89-12.38-8.94-5.89.95-9.89,6.49-8.94,12.38.95,5.89,6.49,9.89,12.38,8.94s9.89-6.49,8.94-12.38"/>
    <path class="cls-20" d="M126.89,22.39c-.1-.63-.25-1.22-.44-1.79l-9.05,1.46.6,3.72,5.2-.84c-.07,1.18-.57,2.26-1.44,3.09l1.35.74,2.06,1.11c1.54-1.95,2.19-4.58,1.72-7.49"/>
    <path class="cls-20" d="M119.21,33.22c2.58-.42,4.61-1.62,5.96-3.34l-3.4-1.86c-.77.73-1.84,1.26-3.16,1.47-2.52.41-4.93-.94-6.07-3.1l-1.18,1.26-1.55,1.66c2.08,2.88,5.66,4.51,9.4,3.9"/>
    <path class="cls-20" d="M112.54,26.39c-.3-.56-.51-1.17-.61-1.82-.11-.65-.09-1.3.01-1.92l-1.55-.85-1.96-1.07c-.44,1.4-.58,2.91-.33,4.46.25,1.55.86,2.94,1.72,4.13l2.73-2.92Z"/>
    <path class="cls-20" d="M116.72,17.8c1.43-.23,2.79.05,3.95.85h0s2.25-3.11,2.25-3.11c-1.91-1.28-4.22-1.88-6.81-1.46-3.74.6-6.63,3.27-7.7,6.66l3.51,1.92c.4-2.41,2.27-4.45,4.78-4.85"/>
    <path class="cls-22" d="M127.37,22.01c-.1-.63-.25-1.22-.44-1.79l-9.05,1.46.6,3.72,5.2-.84c-.07,1.18-.57,2.26-1.44,3.09l1.35.74,2.06,1.11c1.54-1.95,2.19-4.58,1.72-7.49"/>
    <path class="cls-19" d="M119.68,32.84c2.58-.42,4.61-1.62,5.96-3.34l-3.4-1.86c-.77.73-1.84,1.26-3.16,1.47-2.52.41-4.93-.94-6.07-3.1l-1.18,1.26-1.55,1.66c2.08,2.88,5.66,4.51,9.4,3.9"/>
    <path class="cls-16" d="M113.02,26.02c-.3-.56-.51-1.17-.61-1.82-.11-.65-.09-1.3.01-1.92l-1.55-.85-1.96-1.07c-.44,1.4-.58,2.91-.33,4.46.25,1.55.86,2.94,1.72,4.13l2.73-2.92Z"/>
    <path class="cls-7" d="M117.2,17.42c1.43-.23,2.79.05,3.95.85h0s2.25-3.11,2.25-3.11c-1.91-1.28-4.22-1.88-6.81-1.46-3.74.6-6.63,3.27-7.7,6.66l3.51,1.92c.4-2.41,2.27-4.45,4.78-4.85"/>
  </g>
  <g>
    <path class="cls-8" d="M126.48,87.84c1-4.39-1.74-8.75-6.13-9.76-4.39-1-8.75,1.74-9.76,6.13-1,4.39,1.74,8.75,6.13,9.76,4.39,1,8.75-1.74,9.76-6.13"/>
    <path class="cls-16" d="M120.02,81.86l.27,2.99,2.92.67c.51.12.57.82.09,1.02l-2.76,1.18.27,2.99c.05.52-.6.8-.94.4l-1.97-2.26-2.76,1.18c-.48.21-.94-.32-.68-.77l1.54-2.57-1.97-2.26c-.34-.39.02-1,.53-.88l2.92.67,1.54-2.57c.27-.45.95-.29,1,.23"/>
  </g>
  <g>
    <path class="cls-8" d="M17.62,34.86h0c-6.04-1.38-9.82-7.39-8.44-13.43h0c1.38-6.04,7.39-9.82,13.43-8.44,6.04,1.38,9.82,7.39,8.44,13.43-1.38,6.04-7.39,9.82-13.43,8.44"/>
    <g>
      <g class="cls-12">
        <rect class="cls-6" x="23.2" y="20.14" width="2.37" height="2.35" transform="translate(-7.78 17.59) rotate(-34.55)"/>
      </g>
      <g class="cls-10">
        <rect class="cls-4" x="15.2" y="19.17" width="9.94" height="9.85" transform="translate(-10.11 15.69) rotate(-34.55)"/>
      </g>
      <g class="cls-11">
        <rect class="cls-3" x="9.58" y="13.64" width="21.07" height="20.97" transform="translate(-10.13 15.66) rotate(-34.55)"/>
      </g>
    </g>
  </g>
  <path class="cls-8" d="M14.67,71.03h0c-6.04-1.38-9.82-7.39-8.44-13.43h0c1.38-6.04,7.39-9.82,13.43-8.44,6.04,1.38,9.82,7.39,8.44,13.43-1.38,6.04-7.39,9.82-13.43,8.44"/>
  <g>
    <path class="cls-14" d="M28.38,113.24l1.23,4.47c.22.81-.25,1.66-1.07,1.88l-4.26,1.17-1.7,2.2c-.19.25-.58.17-.66-.13l-.36-1.32-1.78.49c-.81.22-1.66-.25-1.88-1.07l-1.23-4.47c-.22-.81.25-1.66,1.07-1.88l8.76-2.41c.81-.22,1.66.25,1.88,1.07Z"/>
    <path class="cls-2" d="M33.16,116.47l.96,3.48c.17.63-.2,1.29-.83,1.46l-1.38.38.28,1.03c.06.23-.17.44-.39.35l-2.01-.8-3.32.91c-.63.17-1.29-.2-1.46-.83l-.4-1.45,4.01-1.1c.98-.27,1.57-1.29,1.29-2.28l-.38-1.39,2.16-.59c.63-.17,1.29.2,1.46.83Z"/>
    <circle class="cls-17" cx="23.13" cy="117.09" r=".77"/>
    <circle class="cls-17" cx="20.54" cy="117.8" r=".77"/>
    <circle class="cls-17" cx="25.73" cy="116.37" r=".77"/>
  </g>
  <path class="cls-5" d="M115.61,113.34l-8.65-2.49c-.48-.14-.98.14-1.12.62l-1.89,6.56c-.14.48.14.98.62,1.12l4.5,1.3,1.52,2.32c.18.27.59.21.68-.1l.42-1.46,1.52.44c.48.14.98-.14,1.12-.62l1.89-6.56c.14-.48-.14-.98-.62-1.12ZM107.22,116.34c-.47-.14-.74-.63-.61-1.1s.63-.74,1.1-.61.74.63.61,1.1-.63.74-1.1.61ZM109.86,117.1c-.47-.14-.74-.63-.61-1.1s.63-.74,1.1-.61.74.63.61,1.1-.63.74-1.1.61ZM112.51,117.87c-.47-.14-.74-.63-.61-1.1s.63-.74,1.1-.61.74.63.61,1.1-.63.74-1.1.61Z"/>
  <g>
    <path class="cls-18" d="M14.37,66.02l-3.72.99.99-3.7c-.46-.83-.75-1.75-.84-2.69-.13-1.44.2-2.87.95-4.11.73-1.21,1.81-2.17,3.1-2.75,1.82-.81,3.92-.78,5.72.08,1.35.65,2.46,1.72,3.15,3.04,1.03,1.97,1.02,4.33-.02,6.29-.82,1.55-2.2,2.74-3.86,3.31-1.8.62-3.78.45-5.47-.46ZM14.56,64.64c.15.08.27.15.41.23.63.36,1.33.58,2.05.66,1.67.19,3.33-.41,4.51-1.57,2.07-2.03,2.21-5.33.33-7.53-1.12-1.31-2.8-2.05-4.54-1.95s-3.24.94-4.22,2.31c-1.26,1.75-1.4,4.09-.3,5.95l.22.38-.56,2.07,2.09-.56Z"/>
    <path class="cls-18" d="M19.63,60.72c.2.05.35.14.52.24l.39.22c.11.06.19.14.28.23.12.13.17.3.13.49-.17.76-.99,1.2-1.73,1.15-.22-.01-.41-.07-.62-.13-.56-.16-1.09-.39-1.58-.71-.76-.49-1.41-1.13-1.93-1.87-.23-.33-.43-.65-.59-1.02-.31-.71-.27-1.56.3-2.13.16-.16.36-.27.6-.29.55-.05.74.54.93.93s.3.75.02,1.12c-.08.11-.18.22-.26.32-.1.12-.08.22,0,.34.52.87,1.29,1.53,2.23,1.9.12.05.22.04.31-.07.15-.19.28-.5.48-.64.15-.11.35-.13.54-.08Z"/>
  </g>
</svg>