<?xml version="1.0" encoding="UTF-8"?><svg id="katman_1" xmlns="http://www.w3.org/2000/svg" viewBox="0 0 1000 1000"><defs><style>.cls-1{fill:#172d4b;}.cls-2{fill:#fff;}.cls-3{fill:#20a4db;}.cls-4{fill:#4cbbc2;}</style></defs><rect class="cls-2" x="0" y="0" width="1000" height="1000"/><path class="cls-1" d="M201.82,407.87h-27.66c-15.28,0-27.66,12.39-27.66,27.66v27.66h27.66v55.33h55.33v-110.66h-27.66Z"/><path class="cls-4" d="M174.15,536.8h55.33v55.33h-16.22c-21.58,0-39.11-17.52-39.11-39.11v-16.22h0Z"/><path class="cls-3" d="M315.25,529.6v39.49h-39.49v-39.49h39.49ZM338.29,506.55h-85.58v85.58h57.91c15.28,0,27.66-12.39,27.66-27.66v-57.91h0Z"/><path class="cls-4" d="M315.25,431.72v39.49h-39.49v-39.49h39.49ZM338.29,408.68h-85.58v85.58h85.58v-85.58h0Z"/><path class="cls-1" d="M433.19,456.54h21.09v98.43h-21.09v-34.73c-4.92,5.77-11.95,8.58-20.95,8.58s-17.15-3.52-23.76-10.69c-6.61-7.17-9.84-16.03-9.84-26.44s3.23-19.12,9.84-26.29c6.61-7.17,14.48-10.83,23.76-10.83s16.03,2.81,20.95,8.58v-6.61ZM416.46,508.84c4.92,0,9-1.55,12.09-4.64s4.64-7.31,4.64-12.51-1.55-9.42-4.64-12.51c-3.09-3.09-7.17-4.64-12.09-4.64s-9,1.55-12.09,4.64c-3.09,3.09-4.64,7.31-4.64,12.51s1.55,9.42,4.64,12.51c3.09,3.09,7.17,4.64,12.09,4.64Z"/><path class="cls-1" d="M488.03,469.05c2.67-9,11.53-13.92,21.09-13.92v23.9c-5.2-.84-9.98,0-14.48,2.67-4.36,2.53-6.61,7.03-6.61,13.36v59.05h-21.09v-97.58h21.09v12.51Z"/><path class="cls-4" d="M540.18,439.19h19.28v115.69h-23.85v-90.87l-24.68,14.84v-23.3l29.26-16.36Z"/><path class="cls-1" d="M585.97,545.59c0,2.39-.86,4.44-2.57,6.15s-3.76,2.57-6.15,2.57-4.44-.86-6.15-2.57-2.57-3.76-2.57-6.15.86-4.44,2.57-6.15c1.71-1.71,3.76-2.57,6.15-2.57s4.44.86,6.15,2.57c1.71,1.71,2.57,3.76,2.57,6.15Z"/><path class="cls-1" d="M598.89,540.92l8.09-7.78c3.63,3.84,7.73,6.85,12.3,9.03,4.56,2.18,9.7,3.27,15.41,3.27,6.23,0,11.33-1.32,15.33-3.97,3.99-2.65,5.99-6.04,5.99-10.19,0-3.63-1.69-6.46-5.06-8.48-3.37-2.02-9.05-3.6-17.04-4.75-11.62-1.66-19.79-4.18-24.51-7.55-4.72-3.37-7.08-7.91-7.08-13.62,0-4.67,1.35-8.74,4.05-12.22,2.7-3.48,6.43-6.17,11.21-8.09,4.77-1.92,10.22-2.88,16.34-2.88,6.85,0,12.97,1.24,18.36,3.74,5.39,2.49,10.17,6.02,14.32,10.58l-8.09,7.78c-3.11-3.84-6.69-6.85-10.74-9.03-4.05-2.18-8.66-3.27-13.85-3.27-5.71,0-10.43,1.19-14.16,3.58-3.74,2.39-5.6,5.55-5.6,9.49,0,2.91,1.58,5.21,4.75,6.93,3.16,1.71,8.53,3.09,16.11,4.12,12.03,1.66,20.52,4.33,25.45,8.01,4.93,3.68,7.39,8.79,7.39,15.33,0,4.77-1.43,9-4.28,12.68-2.85,3.69-6.77,6.54-11.75,8.56-4.98,2.02-10.69,3.04-17.12,3.04-7.47,0-14.14-1.27-20-3.81-5.86-2.54-11.13-6.04-15.8-10.51Z"/><path class="cls-1" d="M691.18,455.63c-2.28,0-4.26-.8-5.91-2.41-1.66-1.61-2.49-3.55-2.49-5.84s.83-4.38,2.49-5.99c1.66-1.61,3.63-2.41,5.91-2.41s4.38.81,5.99,2.41c1.61,1.61,2.41,3.61,2.41,5.99s-.81,4.23-2.41,5.84c-1.61,1.61-3.61,2.41-5.99,2.41ZM696.94,552.75h-11.52v-76.57h11.52v76.57Z"/><path class="cls-1" d="M762.31,485.98h-49.81v-9.81h49.81v9.81ZM763.4,552.75h-18.05c-5.4,0-9.57-1.48-12.53-4.44-2.96-2.96-4.44-7.13-4.44-12.53v-82.02h11.52v81.09c0,2.49.67,4.44,2.02,5.84,1.35,1.4,3.32,2.1,5.91,2.1h15.56v9.96Z"/><path class="cls-1" d="M842.93,530.96l8.09,7.63c-4.05,5.19-8.92,9.26-14.63,12.22-5.71,2.96-12.24,4.44-19.61,4.44-8.09,0-15.33-1.77-21.71-5.29-6.38-3.53-11.39-8.35-15.02-14.47-3.63-6.12-5.45-13.13-5.45-21.01s1.74-14.89,5.21-21.01c3.48-6.12,8.27-10.95,14.4-14.47,6.12-3.53,13.07-5.29,20.86-5.29s14.09,1.74,19.84,5.21c5.76,3.48,10.3,8.22,13.62,14.24,3.32,6.02,4.98,12.97,4.98,20.86v.93h-11.83v-.93c0-6.02-1.17-11.28-3.5-15.8-2.33-4.51-5.5-8.04-9.49-10.58-4-2.54-8.54-3.81-13.62-3.81-5.6,0-10.53,1.3-14.79,3.89-4.26,2.59-7.58,6.17-9.96,10.74-2.39,4.57-3.58,9.86-3.58,15.87s1.3,11.36,3.89,16.03c2.59,4.67,6.15,8.3,10.66,10.89,4.51,2.59,9.73,3.89,15.64,3.89,10.79,0,19.46-4.72,25.99-14.16ZM853.51,518.5h-69.26v-9.49h66.77l2.49,4.98v4.51Z"/></svg>